<svg xmlns="http://www.w3.org/2000/svg" viewBox="0 0 48 37.02"><title>email</title><g id="Layer_4" data-name="Layer 4"><path d="M43.59.2H4.36A4.43,4.43,0,0,0-.07,4.63V33a3.86,3.86,0,0,0,3.86,3.87H43.9a4,4,0,0,0,4-4V4.54A4.34,4.34,0,0,0,43.59.2ZM5.28,3.26H42.23a.27.27,0,0,1,.18.46L24.35,21.78a.69.69,0,0,1-1,0C20.72,19.15,7.9,6.49,5.07,3.77A.3.3,0,0,1,5.28,3.26Zm-2,28.44a.29.29,0,0,1-.5-.21V5.84a.33.33,0,0,1,.57-.24L15.48,17.85a1.17,1.17,0,0,1,0,1.64ZM42,34.32H5.83a.51.51,0,0,1-.36-.86l11.6-11.9a1.48,1.48,0,0,1,2-.09l4.23,4a1,1,0,0,0,1.39,0l4-3.93a1.23,1.23,0,0,1,1.7,0L42.35,33.45A.51.51,0,0,1,42,34.32Zm3.11-2.83a.29.29,0,0,1-.5.21L32.39,19.49a1.16,1.16,0,0,1,0-1.64L44.53,5.6a.33.33,0,0,1,.57.24Z" style="fill:#f9f9f9"/></g></svg>