<svg xmlns="http://www.w3.org/2000/svg" viewBox="0 0 36.93 37.02"><title>icon</title><g id="Layer_5" data-name="Layer 5"><path d="M18.4.13c-5,0-5.59,0-7.58.07a12.66,12.66,0,0,0-4.43.85A9.72,9.72,0,0,0,3.1,3.27,8.51,8.51,0,0,0,1,6.48a12.87,12.87,0,0,0-.84,4.44c-.08,2-.08,2.6-.08,7.57s0,5.59.08,7.58A12.53,12.53,0,0,0,1,30.51,8.88,8.88,0,0,0,3.1,33.8a9,9,0,0,0,3.29,2.14,12.8,12.8,0,0,0,4.43.84c2,.08,2.61.08,7.58.08s5.59,0,7.58-.08a12.53,12.53,0,0,0,4.44-.84,8.83,8.83,0,0,0,3.29-2.14,9.2,9.2,0,0,0,2.14-3.29,13.16,13.16,0,0,0,.84-4.44c.08-2,.08-2.6.08-7.58s0-5.58-.08-7.57a12.75,12.75,0,0,0-.84-4.44,8.75,8.75,0,0,0-2.14-3.29,9.07,9.07,0,0,0-3.29-2.14A13.13,13.13,0,0,0,26,.2C24,.2,23.38.13,18.4.13Zm0,3.36c4.9,0,5.51,0,7.42.08a11.73,11.73,0,0,1,3.45.61,6.54,6.54,0,0,1,2.14,1.38A5.29,5.29,0,0,1,32.79,7.7a10.72,10.72,0,0,1,.61,3.45c.08,1.91.08,2.52.08,7.42s0,5.51-.08,7.42a11.73,11.73,0,0,1-.61,3.45,6.54,6.54,0,0,1-1.38,2.14A5.22,5.22,0,0,1,29.27,33a10.66,10.66,0,0,1-3.45.61c-1.91.08-2.52.08-7.42.08s-5.51,0-7.42-.08A11.73,11.73,0,0,1,7.53,33a6.54,6.54,0,0,1-2.14-1.38A5.22,5.22,0,0,1,4,29.44,10.66,10.66,0,0,1,3.4,26c-.07-1.91-.07-2.52-.07-7.42s0-5.51.07-7.42A11.73,11.73,0,0,1,4,7.7,6.54,6.54,0,0,1,5.39,5.56,8.17,8.17,0,0,1,7.53,4.18,10.72,10.72,0,0,1,11,3.57c1.91-.08,2.52-.08,7.42-.08" style="fill:#fff"/><path d="M18.4,24.62a6.13,6.13,0,1,1,6.12-6.13A6.14,6.14,0,0,1,18.4,24.62Zm0-15.54a9.42,9.42,0,1,0,9.41,9.41A9.41,9.41,0,0,0,18.4,9.08m12-.38A2.22,2.22,0,1,1,28.2,6.48,2.23,2.23,0,0,1,30.42,8.7" style="fill:#fff"/></g></svg>