<?xml version="1.0" encoding="utf-8"?>
<!-- Generator: Adobe Illustrator 21.0.0, SVG Export Plug-In . SVG Version: 6.00 Build 0)  -->
<svg version="1.1" id="Capa_1" xmlns="http://www.w3.org/2000/svg" xmlns:xlink="http://www.w3.org/1999/xlink" x="0px" y="0px"
	 viewBox="0 0 512 512" style="enable-background:new 0 0 512 512;" xml:space="preserve">
<g>
	<path d="M313.4,255.7c0,35.7-28.9,64.6-64.6,64.6s-64.6-28.9-64.6-64.6S213,191,248.7,191S313.4,220,313.4,255.7z"/>
	<path d="M399.9,141.3c-3.1-8.4-8.1-16-14.5-22.3c-6.3-6.4-13.9-11.4-22.3-14.5c-6.8-2.7-17.1-5.8-36-6.7
		c-20.5-0.9-26.6-1.1-78.4-1.1c-51.8,0-57.9,0.2-78.4,1.1c-18.9,0.9-29.2,4-36,6.7c-8.4,3.1-16,8.1-22.3,14.5
		c-6.4,6.3-11.4,13.9-14.5,22.3c-2.7,6.8-5.8,17.1-6.7,36c-0.9,20.4-1.1,26.6-1.1,78.4c0,51.8,0.2,57.9,1.1,78.4
		c0.9,18.9,4,29.2,6.7,36c3.1,8.4,8.1,16,14.5,22.3c6.3,6.4,13.9,11.4,22.3,14.5c6.8,2.7,17.1,5.8,36,6.7
		c20.4,0.9,26.6,1.1,78.4,1.1c51.8,0,57.9-0.2,78.4-1.1c18.9-0.9,29.2-4,36-6.7c16.9-6.5,30.3-19.9,36.8-36.8
		c2.7-6.8,5.8-17.1,6.7-36c0.9-20.5,1.1-26.6,1.1-78.4c0-51.8-0.2-57.9-1.1-78.4C405.7,158.4,402.5,148.1,399.9,141.3z M248.7,355.2
		c-55,0-99.6-44.6-99.6-99.6s44.6-99.6,99.6-99.6c55,0,99.6,44.6,99.6,99.6S303.7,355.2,248.7,355.2z M352.2,175.4
		c-12.9,0-23.3-10.4-23.3-23.3c0-12.9,10.4-23.3,23.3-23.3s23.3,10.4,23.3,23.3C375.5,165,365.1,175.4,352.2,175.4z"/>
	<path d="M1-0.1L1.4,511H511V-0.1H1z M441.5,335.6c-0.9,20.6-4.2,34.7-9,47.1c-10.1,26-30.7,46.6-56.7,56.7
		c-12.3,4.8-26.4,8.1-47.1,9c-20.7,0.9-27.3,1.2-79.9,1.2c-52.7,0-59.3-0.2-79.9-1.2c-20.6-0.9-34.7-4.2-47.1-9
		c-12.9-4.9-24.7-12.5-34.3-22.4c-9.9-9.7-17.5-21.4-22.4-34.3c-4.8-12.3-8.1-26.4-9-47.1c-1-20.7-1.2-27.3-1.2-79.9
		s0.2-59.3,1.2-79.9c0.9-20.6,4.2-34.7,9-47.1c4.9-12.9,12.5-24.7,22.4-34.3c9.7-9.9,21.4-17.5,34.3-22.4c12.3-4.8,26.4-8.1,47.1-9
		c20.7-0.9,27.3-1.2,79.9-1.2s59.3,0.2,79.9,1.2c20.6,0.9,34.7,4.2,47.1,9c12.9,4.9,24.7,12.5,34.3,22.4
		c9.9,9.7,17.5,21.4,22.4,34.3c4.8,12.3,8.1,26.4,9,47.1c0.9,20.7,1.2,27.3,1.2,79.9S442.4,314.9,441.5,335.6z"/>
</g>
</svg>
