<svg xmlns="http://www.w3.org/2000/svg" viewBox="0 0 34.42 36.93"><title>icon</title><g id="Layer_3" data-name="Layer 3"><path id="svg_1" data-name="svg 1" d="M29.16,31.37H24.1V22.86c0-2,0-4.64-2.63-4.64s-3,2.21-3,4.49v8.66h-5V13.87h4.85v2.39h.07a5.23,5.23,0,0,1,4.79-2.82c5.13,0,6.07,3.62,6.07,8.33ZM7.67,11.48A3.06,3.06,0,0,1,4.73,8.33,3.07,3.07,0,0,1,7.67,5.17,3.05,3.05,0,0,1,10.6,8.33h0a3,3,0,0,1-2.93,3.15M10.2,31.37H5.14V13.87H10.2ZM31.68.13H2.6A2.58,2.58,0,0,0,.08,2.77V34.14A2.58,2.58,0,0,0,2.6,36.79H31.68a2.59,2.59,0,0,0,2.53-2.65V2.77A2.58,2.58,0,0,0,31.68.13" style="fill:#fffffc"/></g></svg>