<svg id="Layer_1" data-name="Layer 1" xmlns="http://www.w3.org/2000/svg" viewBox="0 0 182.91 38.16"><title>modern-logo</title><path d="M174.48,12.81a8.08,8.08,0,0,1,3.57,1.51,9.75,9.75,0,0,1,2.57,2.74V12.81h1.47V24.23h-1.47V21.58a5.87,5.87,0,0,0-.45-2.22,8.61,8.61,0,0,0-.53-1.05,7.86,7.86,0,0,0-.67-1,9.18,9.18,0,0,0-1.54-1.52A4.7,4.7,0,0,0,176,15v9.24h-1.49Z" style="fill:#fffdfd"/><path d="M107,1l.15-.73h21.67l-2.38,8.94h-.54a15.44,15.44,0,0,0,.31-1.68,15.81,15.81,0,0,0,.16-2.11,7,7,0,0,0-.63-3.18A2.52,2.52,0,0,0,123.27,1h-8.22l-4.33,16.25h3.66a3.15,3.15,0,0,0,2.2-.86,8.8,8.8,0,0,0,1.64-2,13.3,13.3,0,0,0,1.11-2.24c.29-.73.5-1.26.63-1.57h.54l-4.09,15.3h-.55a11.18,11.18,0,0,0,.35-1.74,14.08,14.08,0,0,0,.16-2.1,4.55,4.55,0,0,0-.86-3,2.86,2.86,0,0,0-2.33-1h-2.65l-5,19h9.12a4.3,4.3,0,0,0,2.9-1.21A13.89,13.89,0,0,0,119.9,33a25,25,0,0,0,1.73-3.18c.47-1.05.81-1.84,1-2.37h.55l-2.73,10.31H97.82L98,37h4l9.55-36Z" style="fill:#fffdfd"/><path d="M151.61,32.93l-2.16-12h-1.12v12h-4.18V4.51h4.18c5,0,7.11,2.83,7.11,8.2,0,2.82-.74,5.37-2.32,6.46l2.67,13.76Zm-3.28-15.85a2.91,2.91,0,0,0,2-.62c.62-.54,1.12-1.58,1.12-3.6s-.5-3.09-1.12-3.63a2.86,2.86,0,0,0-2-.58Z" style="fill:#fffdfd"/><path d="M64.59,2.76a4.66,4.66,0,0,0,2.92,1c1.91,0,4-1,7.63-1,8.34,0,15,8.12,15,16.1,0,8.65-6.21,16.19-15.12,16.19H63.56a4.28,4.28,0,0,0,1-2.93Zm9.58,22.71A6.15,6.15,0,0,0,80.51,19c0-4.22-2.66-6.7-6.34-6.7Z" style="fill:#fffdfd"/><polygon points="-0.09 27.84 -0.09 10.97 7.24 10.97 9.85 14.26 12.4 10.97 19.76 10.97 19.76 27.84 12.32 27.84 12.32 21.63 9.88 24.95 7.47 21.63 7.47 27.84 -0.09 27.84" style="fill:#fffdfd"/><path d="M40.79,27.59a1.85,1.85,0,0,1-.33-.21,2.49,2.49,0,0,1-.65-.88,4.16,4.16,0,0,1-.31-1.14,8.73,8.73,0,0,1-.09-1.24v-10a8.62,8.62,0,0,1,.09-1.24,3.83,3.83,0,0,1,.32-1.15,2.41,2.41,0,0,1,.65-.88,1.21,1.21,0,0,1,.32-.22V7.27a6.44,6.44,0,0,0-2.21.63,5.3,5.3,0,0,0-1.91,1.69,7,7,0,0,0-1,2.48,14.52,14.52,0,0,0-.3,3V23.2a13.34,13.34,0,0,0,.31,3,6.79,6.79,0,0,0,1,2.44,5.24,5.24,0,0,0,1.9,1.68,5.92,5.92,0,0,0,2.2.62Z" style="fill:#fffdfd"/><path d="M48.08,12.06a7,7,0,0,0-1-2.47A5.3,5.3,0,0,0,45.13,7.9a6.4,6.4,0,0,0-2.24-.63v3.31a1.74,1.74,0,0,1,.36.24,2.4,2.4,0,0,1,.66.87,4.15,4.15,0,0,1,.32,1.15,10.63,10.63,0,0,1,.08,1.25v10a10.46,10.46,0,0,1-.08,1.24,4.05,4.05,0,0,1-.32,1.15,2.27,2.27,0,0,1-.65.87,1.43,1.43,0,0,1-.37.23v3.3a6,6,0,0,0,2.25-.64,5.35,5.35,0,0,0,1.91-1.71,7.16,7.16,0,0,0,1-2.46,13.65,13.65,0,0,0,.31-3v-8A13.89,13.89,0,0,0,48.08,12.06Z" style="fill:#fffdfd"/></svg>